<svg width="104" height="137" viewBox="0 0 104 137" fill="none" xmlns="http://www.w3.org/2000/svg">
<path d="M102.725 137C124.968 137 143 118.969 143 96.7256C143 85.7314 138.592 75.7685 131.45 68.501C138.592 61.2333 143 51.2691 143 40.2744C143 18.0314 124.968 0 102.725 0C90.1284 4.57764e-05 78.8843 5.78368 71.499 14.8389C64.1138 5.78423 52.8711 6.10352e-05 40.2754 0C18.0321 0 0.000183055 18.0314 0 40.2744C0 51.2686 4.40711 61.2324 11.5488 68.5C4.40711 75.7676 0 85.7314 0 96.7256C0.000191761 118.969 18.0321 137 40.2754 137C52.8711 137 64.1148 131.217 71.5 122.162C78.8852 131.217 90.1289 137 102.725 137Z" fill="#E2C36E" fill-opacity="0.4"/>
</svg>
