<svg width="344" height="166" viewBox="0 0 344 166" fill="none" xmlns="http://www.w3.org/2000/svg">
<path d="M227.343 -57L227.337 -57C227.15 22.8955 188.634 79.4206 97 80.0047V80.0456C209.079 80.2437 227.34 142.248 227.34 218.263C227.197 209.545 227.181 210.79 227.15 212.032L227.386 222C227.355 220.77 227.34 219.536 227.34 218.298C227.386 125.618 259.888 76.8462 359.01 80.0789C360.352 80.1226 361.682 80.1776 363 80.2437V79.8447C362.556 79.9018 362.113 79.9565 361.67 80.0089C265.108 80.0089 227.747 18.7823 227.343 -57Z" fill="#DA7676" fill-opacity="0.4"/>
<path d="M65.1717 -37L65.1683 -37C65.0748 3.09091 45.8168 31.4548 0 31.7479V31.7684C56.0393 31.8678 65.17 62.981 65.17 101.125C65.0984 96.75 65.0905 97.375 65.0748 97.998L65.1932 103C65.1777 102.383 65.17 101.764 65.17 101.143C65.1932 54.6364 81.4438 30.163 131.005 31.7851C131.676 31.807 132.341 31.8346 133 31.8678V31.6676C132.778 31.6962 132.556 31.7237 132.335 31.75C84.0542 31.75 65.3736 1.02696 65.1717 -37Z" fill="#DA7676" fill-opacity="0.4"/>
</svg>
