<svg width="125" height="104" viewBox="0 0 125 104" fill="none" xmlns="http://www.w3.org/2000/svg">
<path d="M81.5 14.5937L98.5381 0L108.166 20.25L129.668 13.8514L130.218 36.2689L152.48 39.1638L143.849 59.8592L163 71.543L146.706 86.9532L159.444 105.422L138.284 112.86L142.405 134.906L120.04 133.11L114.832 154.918L95.1304 144.2L81.5 162L67.8695 144.2L48.1679 154.918L42.9597 133.11L20.5945 134.906L24.7163 112.86L3.55639 105.422L16.294 86.9532L0 71.543L19.1511 59.8592L10.5353 39.1638L32.7815 36.2689L33.3321 13.8514L54.8343 20.25L64.4619 0L81.5 14.5937Z" fill="#52BA83" fill-opacity="0.4"/>
</svg>
